<?xml version="1.0" standalone="no"?>
<!DOCTYPE svg PUBLIC "-//W3C//DTD SVG 20010904//EN"
 "http://www.w3.org/TR/2001/REC-SVG-20010904/DTD/svg10.dtd">
<svg version="1.0" xmlns="http://www.w3.org/2000/svg"
 width="201.000000pt" height="201.000000pt" viewBox="0 0 201.000000 201.000000"
 preserveAspectRatio="xMidYMid meet">
<metadata>
Created by potrace 1.11, written by Peter Selinger 2001-2013
</metadata>
<g transform="translate(0.000000,201.000000) scale(0.100000,-0.100000)"
fill="#000000" stroke="none">
<path d="M957 2004 c-1 -1 -33 -5 -70 -9 -214 -20 -431 -127 -594 -292 -119
-121 -229 -311 -257 -448 -4 -16 -9 -41 -12 -55 -24 -118 -23 -311 2 -410 52
-205 144 -369 281 -501 253 -245 610 -340 947 -253 541 140 865 706 710 1240
-32 112 -106 267 -144 304 -3 3 -17 21 -32 42 -132 176 -352 312 -585 360 -77
15 -237 30 -246 22z"/>
</g>
</svg>
