<?xml version="1.0" standalone="no"?>
<!DOCTYPE svg PUBLIC "-//W3C//DTD SVG 20010904//EN"
 "http://www.w3.org/TR/2001/REC-SVG-20010904/DTD/svg10.dtd">
<svg version="1.0" xmlns="http://www.w3.org/2000/svg"
 width="508.000000pt" height="508.000000pt" viewBox="0 0 508.000000 508.000000"
 preserveAspectRatio="xMidYMid meet">
<metadata>
Created by potrace 1.11, written by Peter Selinger 2001-2013
</metadata>
<g transform="translate(0.000000,508.000000) scale(0.100000,-0.100000)"
fill="#000000" stroke="none">
<path d="M2460 4874 c-187 -21 -300 -53 -450 -130 -334 -170 -564 -500 -609
-874 -9 -69 -11 -474 -9 -1462 l3 -1367 21 -28 c73 -99 204 -99 278 0 20 28
21 42 26 445 5 382 7 420 23 447 70 114 232 103 288 -19 16 -36 19 -68 19
-254 0 -158 4 -221 14 -246 28 -67 117 -108 190 -86 51 15 101 65 115 115 7
25 11 151 11 331 0 286 0 292 23 325 71 106 203 106 274 0 23 -34 23 -35 23
-418 0 -250 4 -400 11 -428 29 -113 172 -162 259 -88 61 51 60 42 60 505 0
255 4 437 10 460 13 46 77 105 125 114 43 8 101 -7 137 -36 49 -38 58 -75 58
-237 0 -135 2 -153 23 -193 31 -61 65 -83 134 -88 48 -3 64 0 92 20 19 12 44
36 55 51 21 28 21 32 24 1035 3 1068 1 1123 -43 1278 -120 413 -472 733 -889
809 -87 15 -239 25 -296 19z m-205 -494 c24 -26 13 -66 -25 -85 -37 -19 -55
-19 -74 1 -27 26 -20 62 17 84 40 25 59 25 82 0z m-131 -86 c25 -25 19 -51
-20 -86 -51 -46 -118 -138 -149 -204 -31 -66 -64 -87 -95 -59 -11 10 -20 28
-20 39 1 53 80 180 167 269 59 60 88 70 117 41z m504 -350 c72 -30 131 -106
146 -187 10 -53 -17 -138 -57 -184 -41 -46 -119 -83 -177 -83 -58 0 -136 37
-177 83 -40 46 -67 131 -57 184 14 80 73 156 144 187 46 20 131 20 178 0z
m-421 -281 c41 -121 109 -204 201 -246 66 -30 198 -30 264 0 92 42 160 125
201 246 6 15 21 17 124 17 65 0 169 -3 231 -7 110 -6 112 -7 112 -30 0 -108
-92 -325 -185 -436 -49 -58 -56 -72 -51 -97 4 -23 0 -33 -20 -49 -20 -16 -29
-17 -53 -8 -24 9 -35 6 -83 -21 -122 -70 -276 -112 -409 -112 -388 0 -726 285
-793 667 -7 43 -11 81 -9 86 2 4 108 7 234 7 210 0 230 -2 236 -17z"/>
<path d="M3708 4599 c-37 -21 -9 -77 32 -64 22 7 27 44 8 63 -14 14 -18 14
-40 1z"/>
<path d="M1310 4430 c0 -13 -7 -20 -20 -20 -11 0 -20 -7 -20 -15 0 -8 8 -15
19 -15 10 0 21 -9 24 -20 3 -11 10 -20 17 -20 7 0 14 9 17 20 3 11 14 20 24
20 11 0 19 7 19 15 0 8 -9 15 -20 15 -13 0 -20 7 -20 20 0 13 -7 20 -20 20
-13 0 -20 -7 -20 -20z"/>
<path d="M4307 4054 c-4 -4 -7 -18 -7 -30 0 -17 -7 -23 -27 -26 -20 -2 -29 -9
-31 -25 -3 -20 1 -23 27 -23 28 0 31 -3 31 -30 0 -23 5 -30 19 -30 14 0 21 8
23 28 2 21 9 28 31 30 39 5 35 46 -5 50 -20 2 -28 9 -30 29 -3 27 -18 39 -31
27z"/>
<path d="M835 3592 c-41 -25 -56 -45 -65 -87 -17 -76 34 -157 106 -171 50 -9
118 19 144 60 41 67 17 166 -49 201 -40 20 -99 19 -136 -3z m136 -51 c78 -79
-8 -205 -108 -157 -65 31 -76 114 -21 161 42 35 91 34 129 -4z"/>
<path d="M3957 3473 c-4 -3 -7 -17 -7 -29 0 -17 -7 -23 -27 -26 -20 -2 -28 -9
-28 -23 0 -14 8 -21 28 -23 21 -3 27 -9 27 -27 0 -13 5 -27 10 -30 15 -9 40
14 40 36 0 12 7 19 18 19 10 0 23 5 30 12 15 15 -3 38 -29 38 -12 0 -19 7 -19
18 0 28 -28 51 -43 35z"/>
<path d="M147 3033 c-4 -3 -7 -17 -7 -30 0 -17 -6 -23 -23 -23 -13 0 -26 -3
-30 -6 -12 -12 6 -34 28 -34 17 0 24 -7 29 -30 4 -21 11 -30 26 -30 16 0 20 7
20 30 0 27 3 30 30 30 23 0 30 4 30 20 0 16 -7 20 -30 20 -27 0 -30 3 -30 30
0 22 -5 30 -18 30 -10 0 -22 -3 -25 -7z"/>
<path d="M848 2488 c-3 -29 -7 -33 -35 -36 -27 -3 -33 -8 -33 -27 0 -19 6 -24
33 -27 28 -3 32 -7 35 -35 2 -18 7 -34 13 -34 29 -5 34 -1 39 31 4 31 9 36 40
40 27 4 35 10 35 25 0 15 -8 21 -35 25 -31 4 -35 9 -38 38 -3 26 -8 32 -27 32
-19 0 -24 -6 -27 -32z"/>
<path d="M4214 2191 c-5 -24 -12 -31 -29 -31 -24 0 -35 -16 -28 -37 3 -7 15
-13 28 -13 17 0 24 -7 29 -31 7 -39 39 -37 44 3 3 21 9 27 30 30 19 2 27 9 27
23 0 14 -8 21 -27 23 -21 3 -27 9 -30 30 -5 40 -37 42 -44 3z"/>
<path d="M4864 1716 c-12 -31 0 -51 31 -51 27 0 30 3 30 30 0 25 -4 30 -28 33
-17 2 -29 -2 -33 -12z"/>
<path d="M3454 1576 c-38 -17 -71 -57 -85 -105 -7 -22 -9 -111 -7 -233 3 -181
5 -199 24 -225 74 -99 205 -99 278 0 20 27 21 41 21 252 0 211 -1 225 -21 252
-51 68 -134 92 -210 59z"/>
<path d="M4320 1275 c-26 -31 13 -82 44 -56 19 16 21 42 4 59 -16 16 -33 15
-48 -3z"/>
<path d="M2140 1208 c-70 -36 -84 -64 -89 -170 -4 -109 9 -158 50 -192 70 -59
159 -58 220 3 100 99 71 318 -48 367 -46 20 -82 17 -133 -8z"/>
<path d="M317 1124 c-4 -4 -7 -18 -7 -30 0 -17 -7 -23 -27 -26 -39 -4 -39 -42
-1 -46 21 -3 27 -9 30 -30 2 -19 9 -27 23 -27 14 0 21 8 23 27 3 21 9 27 30
30 19 2 27 9 27 23 0 14 -8 21 -27 23 -21 3 -27 9 -30 30 -3 26 -26 40 -41 26z"/>
<path d="M2815 925 c-51 -18 -91 -62 -105 -116 -8 -27 -10 -120 -8 -264 3
-221 3 -222 30 -262 66 -101 205 -98 275 6 22 33 23 41 23 278 0 276 -4 296
-69 338 -48 30 -97 37 -146 20z"/>
<path d="M1484 756 c-17 -8 -44 -31 -60 -52 -28 -37 -29 -40 -29 -165 0 -142
7 -160 75 -206 46 -32 124 -32 171 0 57 38 79 95 79 207 0 111 -19 164 -70
200 -41 29 -121 37 -166 16z"/>
</g>
</svg>
